<svg width="16" height="16" viewBox="0 0 16 16" fill="none" xmlns="http://www.w3.org/2000/svg">
    <path fill-rule="evenodd" clip-rule="evenodd"
          d="M13.6 8C13.6 8.15913 13.5368 8.31174 13.4242 8.42426C13.3117 8.53679 13.1591 8.6 13 8.6H4.48958L7.81598 11.768C7.87545 11.8219 7.92349 11.8873 7.95725 11.9601C7.99101 12.033 8.00981 12.1119 8.01252 12.1921C8.01523 12.2724 8.00181 12.3524 7.97304 12.4274C7.94427 12.5023 7.90075 12.5708 7.84505 12.6286C7.78935 12.6864 7.72261 12.7325 7.64878 12.7641C7.57495 12.7957 7.49553 12.8121 7.41524 12.8124C7.33494 12.8127 7.25539 12.7969 7.18131 12.7659C7.10723 12.7349 7.04013 12.6894 6.98398 12.632L2.58398 8.432C2.52591 8.37603 2.47972 8.30893 2.44817 8.2347C2.41662 8.16048 2.40036 8.08065 2.40036 8C2.40036 7.91935 2.41662 7.83952 2.44817 7.7653C2.47972 7.69107 2.52591 7.62397 2.58398 7.568L6.98398 3.368C7.04013 3.3106 7.10723 3.26506 7.18131 3.23407C7.25539 3.20308 7.33494 3.18728 7.41524 3.1876C7.49553 3.18791 7.57495 3.20435 7.64878 3.23592C7.72261 3.26749 7.78935 3.31357 7.84505 3.37141C7.90075 3.42925 7.94427 3.49768 7.97304 3.57265C8.00181 3.64762 8.01523 3.7276 8.01252 3.80785C8.00981 3.88811 7.99101 3.967 7.95725 4.03986C7.92349 4.11271 7.87545 4.17805 7.81598 4.232L4.48958 7.4L13 7.4C13.1591 7.4 13.3117 7.46321 13.4242 7.57574C13.5368 7.68826 13.6 7.84087 13.6 8Z"
          fill="#5EEAD4"/>
</svg>
