<svg width="18" height="18" viewBox="0 0 17 17" fill="none" xmlns="http://www.w3.org/2000/svg">
    <path fill-rule="evenodd" clip-rule="evenodd"
          d="M4.876 11.964C4.9885 12.0764 5.141 12.1395 5.3 12.1395C5.459 12.1395 5.6115 12.0764 5.724 11.964L11.5 6.18801V10.74C11.5 10.8991 11.5632 11.0518 11.6757 11.1643C11.7883 11.2768 11.9409 11.34 12.1 11.34C12.2591 11.34 12.4117 11.2768 12.5243 11.1643C12.6368 11.0518 12.7 10.8991 12.7 10.74V4.74001C12.7 4.58088 12.6368 4.42827 12.5243 4.31575C12.4117 4.20323 12.2591 4.14001 12.1 4.14001H6.1C5.94087 4.14001 5.78826 4.20323 5.67574 4.31575C5.56322 4.42827 5.5 4.58088 5.5 4.74001C5.5 4.89914 5.56322 5.05176 5.67574 5.16428C5.78826 5.2768 5.94087 5.34001 6.1 5.34001H10.652L4.876 11.116C4.76364 11.2285 4.70053 11.381 4.70053 11.54C4.70053 11.699 4.76364 11.8515 4.876 11.964Z"
          fill="#E2E8F0"/>
</svg>
