<?xml version="1.0" encoding="iso-8859-1"?>
<svg fill="#94A3B8" height="800px" width="800px" version="1.1" id="Capa_1" xmlns="http://www.w3.org/2000/svg"
     viewBox="0 0 326.234 326.234" xml:space="preserve">
<g>
	<path d="M162.162,119.717c-24.814,0-42.836,18.773-42.836,44.622c0,26.145,17.611,44.394,42.836,44.394
		s42.842-18.249,42.842-44.394C205.004,138.49,186.984,119.717,162.162,119.717z"/>
    <path d="M163.121,0.007C73.029,0.007,0,73.043,0,163.124C0,253.2,73.029,326.228,163.121,326.228
		c90.07,0,163.113-73.027,163.113-163.104C326.234,73.043,253.191,0.007,163.121,0.007z M230.502,231.205
		c-12.547,0-22.42-9.4-24.857-22.722c-0.043,0.051-0.086,0.094-0.129,0.139c-11.082,11.423-26.475,17.703-43.354,17.703
		c-16.871,0-32.27-6.28-43.35-17.703c-11.014-11.357-17.078-27.077-17.078-44.283c0-17.201,6.059-32.958,17.063-44.372
		c11.094-11.509,26.498-17.844,43.365-17.844c16.875,0,32.273,6.335,43.371,17.844c0.012,0.013,0.023,0.026,0.035,0.038
		c1.217-3.415,4.471-5.868,8.309-5.868c4.85,0,8.801,3.935,8.801,8.795v79.09c0,7.524,4.029,11.589,7.824,11.589
		c11.643,0,19.789-19.626,19.789-47.716c0-51.675-36.285-89.176-86.299-89.176c-51.023,0-88.041,37.221-88.041,88.51
		c0,48.845,35.811,84.288,85.17,84.288c10.906,0,26.188-3.745,35.533-8.722c4.297-2.279,9.629-0.649,11.91,3.639
		c2.275,4.285,0.646,9.619-3.65,11.897c-11.732,6.251-30.164,10.784-43.793,10.784c-28.6,0-54.727-10.261-73.539-28.894
		c-18.844-18.663-29.225-44.592-29.225-72.992c0-29.573,10.629-56.555,29.945-75.973c19.35-19.431,46.229-30.131,75.69-30.131
		c28.996,0,55.461,10.795,74.471,30.376c18.973,19.525,29.416,46.656,29.416,76.394
		C267.879,205.572,253.201,231.205,230.502,231.205z"/>
</g>
</svg>