<svg width="13" height="10" viewBox="0 0 13 10" fill="none" xmlns="http://www.w3.org/2000/svg">
    <path fill-rule="evenodd" clip-rule="evenodd"
          d="M0.98999 5.14004C0.98999 4.98091 1.0532 4.8283 1.16573 4.71578C1.27825 4.60326 1.43086 4.54004 1.58999 4.54004H10.1004L6.77399 1.37204C6.71451 1.3181 6.66647 1.25276 6.63271 1.1799C6.59895 1.10704 6.58016 1.02815 6.57745 0.947898C6.57474 0.867645 6.58816 0.787664 6.61693 0.712695C6.64569 0.637725 6.68921 0.569293 6.74491 0.511452C6.80061 0.453611 6.86735 0.407539 6.94118 0.375965C7.01502 0.344392 7.09443 0.327959 7.17473 0.327641C7.25503 0.327324 7.33457 0.343127 7.40865 0.374115C7.48273 0.405104 7.54984 0.450647 7.60599 0.508045L12.006 4.70804C12.0641 4.76402 12.1102 4.83112 12.1418 4.90534C12.1733 4.97957 12.1896 5.05939 12.1896 5.14004C12.1896 5.2207 12.1733 5.30052 12.1418 5.37475C12.1102 5.44897 12.0641 5.51607 12.006 5.57204L7.60599 9.77205C7.54984 9.82944 7.48273 9.87499 7.40865 9.90597C7.33457 9.93696 7.25503 9.95277 7.17473 9.95245C7.09443 9.95213 7.01502 9.9357 6.94118 9.90413C6.86735 9.87255 6.80061 9.82648 6.74491 9.76864C6.68921 9.7108 6.64569 9.64237 6.61693 9.5674C6.58816 9.49243 6.57474 9.41245 6.57745 9.33219C6.58016 9.25194 6.59895 9.17305 6.63271 9.10019C6.66647 9.02733 6.71451 8.96199 6.77399 8.90805L10.1004 5.74004H1.58999C1.43086 5.74004 1.27825 5.67683 1.16573 5.56431C1.0532 5.45179 0.98999 5.29917 0.98999 5.14004Z"
          fill="#E2E8F0"/>
</svg>
